<?xml version="1.0" encoding="utf-8"?>
<!-- Generator: Adobe Illustrator 21.1.0, SVG Export Plug-In . SVG Version: 6.00 Build 0)  -->
<svg version="1.1"
	 id="svg2" inkscape:version="0.92.4 (5da689c313, 2019-01-14)" sodipodi:docname="banner.svg" xmlns:cc="http://creativecommons.org/ns#" xmlns:dc="http://purl.org/dc/elements/1.1/" xmlns:inkscape="http://www.inkscape.org/namespaces/inkscape" xmlns:rdf="http://www.w3.org/1999/02/22-rdf-syntax-ns#" xmlns:sodipodi="http://sodipodi.sourceforge.net/DTD/sodipodi-0.dtd" xmlns:svg="http://www.w3.org/2000/svg"
	 xmlns="http://www.w3.org/2000/svg" xmlns:xlink="http://www.w3.org/1999/xlink" x="0px" y="0px" viewBox="0 0 1484.4 362.9"
	 style="enable-background:new 0 0 1484.4 362.9;" xml:space="preserve">
<style type="text/css">
	.st0{fill:#FFFFFF;stroke:#FFFFFF;stroke-width:21;stroke-linecap:round;stroke-linejoin:round;}
	.st1{fill:#333333;}
	.st2{fill:#FF5500;}
	.st3{fill:#C8C0FF;}
	.st4{fill:#A081CE;}
	.st5{fill:#FF8B00;}
</style>
<sodipodi:namedview  bordercolor="#666666" borderopacity="1" gridtolerance="10" guidetolerance="10" id="namedview93" inkscape:current-layer="layer2" inkscape:cx="59.013394" inkscape:cy="181.47415" inkscape:pageopacity="0" inkscape:pageshadow="2" inkscape:window-height="1017" inkscape:window-maximized="1" inkscape:window-width="1866" inkscape:window-x="54" inkscape:window-y="26" inkscape:zoom="1.6427873" objecttolerance="10" pagecolor="#ffffff" showgrid="false">
	</sodipodi:namedview>
<g id="layer2" inkscape:groupmode="layer" inkscape:label="Layer 2">
	<path id="path97" inkscape:connector-curvature="0" class="st0" d="M74.6,333.8c-24.9-11.4-36.8-27.8-36.8-51.3
		c0-23.4,8-37.4,26.8-47.2c14.9-7.7,51.5-8.9,55.9-1.8c2.1,3.5,4.4,3.5,7.8,0.1c5.4-5.4-12.1-27.2-21.9-27.2
		c-16.2,0-7.3-29.5,15.4-50.8c18.7-17.6,51.6-21.2,73.1-7.9c31.2,19.3,45.2,67.5,24.5,84c-16.4,13.1-25.5,29.1-25.5,45.1
		c0,19.4,9.4,16.9,14.5-3.9c9.8-40.1,59.3-47.9,86.9-13.8c8.7,10.7,7.1,47-2.4,55.6c-13.4,12.1-66.4,21.2-136.9,23.5
		C103,340,86.2,339.1,74.6,333.8L74.6,333.8z"/>
</g>
<g>
	<g>
		<path class="st1" d="M801.2,106.5c0,34.7-24,56.5-53.7,56.5c-12.7,0-23-3.8-30.5-11.5v48.8h-38.3V51.8h36.5v10.9
			c7.3-8.7,18-12.7,32.3-12.7C777.2,50,801.2,71.8,801.2,106.5z M762.5,106.5c0-16.5-10.1-26-23-26s-23,9.5-23,26
			c0,16.5,10.1,26,23,26S762.5,123.1,762.5,106.5z"/>
		<path class="st1" d="M810.1,106.3c0-32.9,26-56.3,62.8-56.3c24.8,0,43.8,11.1,51.3,30.1l-29.7,15.1c-5.2-10.3-12.9-14.7-21.8-14.7
			c-13.3,0-23.8,9.3-23.8,25.8c0,16.9,10.5,26.2,23.8,26.2c8.9,0,16.5-4.4,21.8-14.7l29.7,15.1c-7.5,19-26.4,30.1-51.3,30.1
			C836.2,163,810.1,139.6,810.1,106.3z"/>
		<path class="st1" d="M1046.6,116.2h-79.5c3.2,11.1,12.7,17.6,26.8,17.6c10.7,0,17.8-3,25.2-9.5l20.2,21
			c-10.5,11.7-25.8,17.8-46.6,17.8c-38.9,0-64.2-24-64.2-56.7c0-32.9,25.6-56.3,60.1-56.3c32.3,0,58.5,20.6,58.5,56.7
			C1047.2,109.5,1046.8,113.2,1046.6,116.2z M966.5,96h44.8c-2-11.5-10.5-18.8-22.4-18.8C977,77.3,968.7,84.5,966.5,96z"/>
		<path class="st1" d="M1062.9,11.5h38.3v149.7h-38.3V11.5z"/>
	</g>
	<g>
		<path class="st1" d="M678.8,294.8c0-32.9,26-56.3,62.8-56.3c24.8,0,43.8,11.1,51.3,30.1l-29.7,15.1c-5.2-10.3-12.9-14.7-21.8-14.7
			c-13.3,0-23.8,9.3-23.8,25.8c0,16.9,10.5,26.2,23.8,26.2c8.9,0,16.5-4.4,21.8-14.7l29.7,15.1c-7.5,19-26.4,30.1-51.3,30.1
			C704.8,351.5,678.8,328.1,678.8,294.8z"/>
		<path class="st1" d="M804.9,199.9h38.3v149.7h-38.3V199.9z"/>
		<path class="st1" d="M859.2,294.8c0-32.9,26-56.3,61.7-56.3c36.1,0,61.7,23.4,61.7,56.3c0,33.1-25.6,56.7-61.7,56.7
			C885.2,351.5,859.2,327.9,859.2,294.8z M943.9,294.8c0-16.5-9.9-25.8-23-25.8c-12.9,0-23,9.3-23,25.8c0,16.7,10.1,26.2,23,26.2
			C934,321,943.9,311.5,943.9,294.8z"/>
		<path class="st1" d="M1113.4,240.3v109.4h-36.5V338c-8.3,9.1-20,13.5-32.5,13.5c-26.8,0-46.4-15.3-46.4-50v-61.1h38.3v54.9
			c0,16.9,6.7,23.6,18.2,23.6c11.3,0,20.6-7.5,20.6-25.8v-52.7H1113.4z"/>
		<path class="st1" d="M1252.2,199.9v149.7h-36.5v-10.9c-7.3,8.7-18,12.7-32.1,12.7c-29.9,0-53.9-21.8-53.9-56.7
			c0-34.7,24-56.3,53.9-56.3c12.7,0,23,3.6,30.3,11.3v-49.8H1252.2z M1214.5,294.8c0-16.5-9.9-25.8-22.8-25.8
			c-13.1,0-23,9.3-23,25.8c0,16.7,9.9,26.2,23,26.2C1204.6,321,1214.5,311.5,1214.5,294.8z"/>
	</g>
	<rect x="406.4" y="215.7" class="st2" width="48.6" height="48.6"/>
	<rect x="365.4" y="264.3" class="st3" width="40.9" height="40.9"/>
	<rect x="406.4" y="305.2" class="st4" width="33.3" height="33.3"/>
	<rect x="455" y="182.4" class="st5" width="33.3" height="33.3"/>
	<g>
		<path class="st1" d="M562.3,114.4c-2.6-46.7-41.4-83.9-88.7-83.9c-19.5,0-38.1,6.2-53.6,18c-11,8.4-20,19.3-26.1,31.7
			c-7.5-2.3-15.3-3.4-23.2-3.4c-19.1,0-37.5,6.8-52,19.3c-11.7,10.1-20.2,23.3-24.5,38c-15.8,3.6-30.2,11.9-41.2,24
			c-13.4,14.7-20.8,33.8-20.8,53.7c0,44,35.8,79.7,79.7,79.7h53.5v-27.1h-53.5c-29,0-52.6-23.6-52.6-52.6
			c0-27.2,20.4-49.7,47.4-52.3l10.4-1l1.7-10.3c4.1-25.6,25.9-44.2,51.9-44.2c8.6,0,16.9,2,24.5,6l14.6,7.7l4.7-15.8
			c7.7-26,32-44.1,59.2-44.1c34,0,61.7,27.7,61.7,61.7c0,2.2-0.1,4.5-0.4,6.7l-1.7,15.7l15.8-0.8c1,0,2-0.1,2.9-0.1
			c34,0,61.7,27.7,61.7,61.7s-27.7,61.7-61.7,61.7h-45.9v27.1H552c49,0,88.8-39.8,88.8-88.8C640.9,157.1,606.5,119.5,562.3,114.4z"
			/>
	</g>
</g>
</svg>
