<?xml version="1.0" encoding="utf-8"?>
<!-- Generator: Adobe Illustrator 21.1.0, SVG Export Plug-In . SVG Version: 6.00 Build 0)  -->
<svg version="1.1"
	 id="svg2" inkscape:version="0.92.4 (5da689c313, 2019-01-14)" sodipodi:docname="logo.svg" xmlns:cc="http://creativecommons.org/ns#" xmlns:dc="http://purl.org/dc/elements/1.1/" xmlns:inkscape="http://www.inkscape.org/namespaces/inkscape" xmlns:rdf="http://www.w3.org/1999/02/22-rdf-syntax-ns#" xmlns:sodipodi="http://sodipodi.sourceforge.net/DTD/sodipodi-0.dtd" xmlns:svg="http://www.w3.org/2000/svg"
	 xmlns="http://www.w3.org/2000/svg" xmlns:xlink="http://www.w3.org/1999/xlink" x="0px" y="0px" viewBox="0 0 256 64"
	 style="enable-background:new 0 0 256 64;" xml:space="preserve">
<style type="text/css">
	.st0{fill:#333333;}
	.st1{fill:#FF5500;}
	.st2{fill:#C8C0FF;}
	.st3{fill:#A081CE;}
	.st4{fill:#FF8B00;}
</style>
<sodipodi:namedview  bordercolor="#666666" borderopacity="1" gridtolerance="10" guidetolerance="10" id="namedview93" inkscape:current-layer="layer2" inkscape:cx="70.146228" inkscape:cy="46.916542" inkscape:pageopacity="0" inkscape:pageshadow="2" inkscape:window-height="704" inkscape:window-maximized="1" inkscape:window-width="1308" inkscape:window-x="58" inkscape:window-y="27" inkscape:zoom="4.61" objecttolerance="10" pagecolor="#ffffff" showgrid="false">
	</sodipodi:namedview>
<g>
	<g>
		<path class="st0" d="M138.4,18.8c0,6.1-4.2,10-9.5,10c-2.2,0-4.1-0.7-5.4-2v8.6h-6.8V9.1h6.4V11c1.3-1.5,3.2-2.2,5.7-2.2
			C134.2,8.8,138.4,12.6,138.4,18.8z M131.6,18.8c0-2.9-1.8-4.6-4.1-4.6c-2.3,0-4.1,1.7-4.1,4.6c0,2.9,1.8,4.6,4.1,4.6
			C129.8,23.4,131.6,21.7,131.6,18.8z"/>
		<path class="st0" d="M140,18.7c0-5.8,4.6-9.9,11.1-9.9c4.4,0,7.7,2,9,5.3l-5.2,2.7c-0.9-1.8-2.3-2.6-3.8-2.6
			c-2.4,0-4.2,1.6-4.2,4.6c0,3,1.9,4.6,4.2,4.6c1.6,0,2.9-0.8,3.8-2.6l5.2,2.7c-1.3,3.3-4.7,5.3-9,5.3C144.6,28.7,140,24.6,140,18.7
			z"/>
		<path class="st0" d="M181.7,20.5h-14c0.6,2,2.2,3.1,4.7,3.1c1.9,0,3.1-0.5,4.5-1.7l3.6,3.7c-1.9,2.1-4.6,3.1-8.2,3.1
			c-6.9,0-11.3-4.2-11.3-10c0-5.8,4.5-9.9,10.6-9.9c5.7,0,10.3,3.6,10.3,10C181.8,19.3,181.8,19.9,181.7,20.5z M167.6,16.9h7.9
			c-0.4-2-1.9-3.3-4-3.3C169.4,13.6,168,14.9,167.6,16.9z"/>
		<path class="st0" d="M184.6,2h6.8v26.4h-6.8V2z"/>
	</g>
	<g>
		<path class="st0" d="M116.8,52c0-5.8,4.6-9.9,11.1-9.9c4.4,0,7.7,2,9,5.3l-5.2,2.7c-0.9-1.8-2.3-2.6-3.8-2.6
			c-2.4,0-4.2,1.6-4.2,4.6c0,3,1.9,4.6,4.2,4.6c1.6,0,2.9-0.8,3.8-2.6l5.2,2.7c-1.3,3.3-4.7,5.3-9,5.3C121.4,62,116.8,57.9,116.8,52
			z"/>
		<path class="st0" d="M139.1,35.3h6.8v26.4h-6.8V35.3z"/>
		<path class="st0" d="M148.6,52c0-5.8,4.6-9.9,10.9-9.9c6.4,0,10.9,4.1,10.9,9.9c0,5.8-4.5,10-10.9,10
			C153.2,62,148.6,57.8,148.6,52z M163.6,52c0-2.9-1.7-4.6-4.1-4.6c-2.3,0-4.1,1.6-4.1,4.6c0,3,1.8,4.6,4.1,4.6
			C161.8,56.6,163.6,54.9,163.6,52z"/>
		<path class="st0" d="M193.5,42.4v19.3h-6.4v-2.1c-1.5,1.6-3.5,2.4-5.7,2.4c-4.7,0-8.2-2.7-8.2-8.8V42.4h6.8v9.7
			c0,3,1.2,4.2,3.2,4.2c2,0,3.6-1.3,3.6-4.6v-9.3H193.5z"/>
		<path class="st0" d="M218,35.3v26.4h-6.4v-1.9c-1.3,1.5-3.2,2.2-5.7,2.2c-5.3,0-9.5-3.8-9.5-10c0-6.1,4.2-9.9,9.5-9.9
			c2.2,0,4.1,0.6,5.3,2v-8.8H218z M211.3,52c0-2.9-1.7-4.6-4-4.6c-2.3,0-4.1,1.6-4.1,4.6c0,3,1.7,4.6,4.1,4.6
			C209.6,56.6,211.3,54.9,211.3,52z"/>
	</g>
	<rect x="68.7" y="38" class="st1" width="8.6" height="8.6"/>
	<rect x="61.5" y="46.6" class="st2" width="7.2" height="7.2"/>
	<rect x="68.7" y="53.8" class="st3" width="5.9" height="5.9"/>
	<rect x="77.3" y="32.2" class="st4" width="5.9" height="5.9"/>
	<g>
		<path class="st0" d="M96.3,20.2C95.8,11.9,89,5.4,80.6,5.4c-3.4,0-6.7,1.1-9.5,3.2c-1.9,1.5-3.5,3.4-4.6,5.6
			c-1.3-0.4-2.7-0.6-4.1-0.6c-3.4,0-6.6,1.2-9.2,3.4c-2.1,1.8-3.6,4.1-4.3,6.7c-2.8,0.6-5.3,2.1-7.3,4.2c-2.4,2.6-3.7,6-3.7,9.5
			c0,7.8,6.3,14.1,14.1,14.1h9.4v-4.8h-9.4c-5.1,0-9.3-4.2-9.3-9.3c0-4.8,3.6-8.8,8.4-9.2l1.8-0.2l0.3-1.8c0.7-4.5,4.6-7.8,9.2-7.8
			c1.5,0,3,0.4,4.3,1.1l2.6,1.4l0.8-2.8c1.4-4.6,5.7-7.8,10.4-7.8c6,0,10.9,4.9,10.9,10.9c0,0.4,0,0.8-0.1,1.2L91.1,25l2.8-0.1
			c0.2,0,0.4,0,0.5,0c6,0,10.9,4.9,10.9,10.9s-4.9,10.9-10.9,10.9h-8.1v4.8h8.1c8.6,0,15.7-7,15.7-15.7
			C110.1,27.7,104,21.1,96.3,20.2z"/>
	</g>
</g>
</svg>
