<?xml version="1.0" encoding="utf-8"?>
<!-- Generator: Adobe Illustrator 21.1.0, SVG Export Plug-In . SVG Version: 6.00 Build 0)  -->
<svg version="1.1" id="Capa_1" xmlns="http://www.w3.org/2000/svg" xmlns:xlink="http://www.w3.org/1999/xlink" x="0px" y="0px"
	 viewBox="0 0 640 480" style="enable-background:new 0 0 640 480;" xml:space="preserve">
<style type="text/css">
	.st0{fill:#FF5500;}
	.st1{fill:#C8C0FF;}
	.st2{fill:#A081CE;}
	.st3{fill:#FF8B00;}
	.st4{fill:#333333;}
</style>
<desc>Created with Fabric.js 3.6.3</desc>
<g>
	<rect x="275.7" y="285.5" class="st0" width="71" height="71"/>
	<rect x="216.1" y="356.5" class="st1" width="59.8" height="59.8"/>
	<rect x="275.7" y="416.4" class="st2" width="48.6" height="48.6"/>
	<rect x="346.7" y="237.1" class="st3" width="48.6" height="48.6"/>
	<g>
		<path class="st4" d="M503.5,137.6C499.8,69.4,443.2,15,374,15c-28.5,0-55.6,9.2-78.2,26.3c-16.1,12.2-29.3,28.3-38.2,46.2
			c-10.9-3.2-22.3-5-33.8-5c-27.8,0-54.9,9.9-76,28c-17.1,14.6-29.5,34-35.7,55.6c-23.1,5.2-43.9,17.4-60.1,35
			c-19.6,21.6-30.3,49.4-30.3,78.4c0,64.3,52.1,116.4,116.4,116.4h78.2v-39.5h-78.4c-42.4,0-76.7-34.5-76.7-76.7
			c0-39.7,29.8-72.5,69.2-76.4l15.1-1.5l2.5-15.1c6-37.5,38-64.5,75.7-64.5c12.7,0,24.6,3,35.7,8.7l21.3,11.2l6.9-23.1
			c11.2-38,46.7-64.3,86.4-64.3c49.6,0,90.1,40.5,90.1,90.1c0,3.2-0.2,6.5-0.5,9.7l-2.5,23.1l23.1-1c1.5,0,3,0,4.2,0
			c49.6,0,90.1,40.5,90.1,90.1s-40.5,90.1-90.1,90.1h-67v39.5h67c71.5,0,129.6-58.1,129.6-129.6
			C618.2,200.2,568.1,145.1,503.5,137.6z"/>
	</g>
</g>
</svg>
